<?xml version="1.0" encoding="utf-8"?>
<!-- Generator: Adobe Illustrator 16.0.0, SVG Export Plug-In . SVG Version: 6.00 Build 0)  -->
<!DOCTYPE svg PUBLIC "-//W3C//DTD SVG 1.1//EN" "http://www.w3.org/Graphics/SVG/1.1/DTD/svg11.dtd">
<svg version="1.1" id="Layer_1" xmlns="http://www.w3.org/2000/svg" xmlns:xlink="http://www.w3.org/1999/xlink" x="0px" y="0px"
	 width="200px" height="60px" viewBox="-32.5 -10 200 60" enable-background="new -32.5 -10 200 60" xml:space="preserve">
<g>
	<path fill="#FFFFFF" d="M166.262,42.659c0,3.14-2.543,5.683-5.688,5.683H-25.572c-3.145,0-5.696-2.543-5.696-5.683V-2.653
		c0-3.139,2.551-5.69,5.696-5.69h186.145c3.146,0,5.688,2.551,5.688,5.69L166.262,42.659L166.262,42.659z"/>
	<path fill="#A6A6A6" d="M160.574,49.664H-25.572c-3.868,0-7.016-3.142-7.016-7.005V-2.652c0-3.866,3.148-7.011,7.016-7.011h186.145
		c3.861,0,7.016,3.145,7.016,7.011v45.312C167.59,46.522,164.438,49.664,160.574,49.664L160.574,49.664z"/>
	<path d="M166.262,42.659c0,3.14-2.543,5.683-5.688,5.683H-25.572c-3.145,0-5.696-2.543-5.696-5.683V-2.653
		c0-3.139,2.551-5.69,5.696-5.69h186.145c3.146,0,5.688,2.551,5.688,5.69L166.262,42.659L166.262,42.659z"/>
	<path fill="#FFFFFF" d="M12.109,19.688c-0.043-4.782,3.916-7.108,4.096-7.217c-2.242-3.269-5.716-3.715-6.938-3.75
		c-2.917-0.308-5.749,1.746-7.235,1.746c-1.516,0-3.805-1.716-6.272-1.667c-3.175,0.05-6.146,1.888-7.774,4.742
		c-3.362,5.82-0.855,14.374,2.366,19.078c1.611,2.306,3.494,4.877,5.958,4.785c2.41-0.097,3.311-1.536,6.22-1.536
		c2.883,0,3.729,1.536,6.242,1.479c2.588-0.039,4.217-2.313,5.771-4.64c1.862-2.638,2.609-5.241,2.639-5.374
		C17.124,27.312,12.16,25.418,12.109,19.688z"/>
	<path fill="#FFFFFF" d="M7.362,5.626C8.658,4.004,9.545,1.799,9.299-0.44C7.423-0.357,5.076,0.857,3.724,2.444
		C2.528,3.841,1.46,6.132,1.737,8.287C3.845,8.443,6.009,7.222,7.362,5.626z"/>
	
		<linearGradient id="SVGID_1_" gradientUnits="userSpaceOnUse" x1="55.228" y1="586.3232" x2="55.228" y2="532.8477" gradientTransform="matrix(1 0 0 1 59 -536.5)">
		<stop  offset="0" style="stop-color:#1A1A1A;stop-opacity:0.1"/>
		<stop  offset="0.1235" style="stop-color:#212121;stop-opacity:0.1506"/>
		<stop  offset="0.3085" style="stop-color:#353535;stop-opacity:0.2265"/>
		<stop  offset="0.5321" style="stop-color:#575757;stop-opacity:0.3181"/>
		<stop  offset="0.7834" style="stop-color:#858585;stop-opacity:0.4212"/>
		<stop  offset="1" style="stop-color:#B3B3B3;stop-opacity:0.51"/>
	</linearGradient>
	<path fill="url(#SVGID_1_)" d="M160.574-9.664H60.868l39.053,59.328h60.653c3.861,0,7.014-3.142,7.014-7.009V-2.652
		C167.59-6.519,164.438-9.664,160.574-9.664z"/>
	<g>
		<path fill="#FFFFFF" d="M47.029,37.075H43.66l-1.846-5.799h-6.414l-1.758,5.799h-3.28l6.356-19.744h3.926L47.029,37.075z
			 M41.257,28.844l-1.669-5.155c-0.176-0.528-0.508-1.768-0.995-3.72h-0.06c-0.196,0.839-0.509,2.08-0.938,3.72l-1.641,5.155H41.257
			z"/>
		<path fill="#FFFFFF" d="M63.346,29.781c0,2.421-0.658,4.336-1.974,5.74c-1.178,1.251-2.643,1.875-4.389,1.875
			c-1.885,0-3.241-0.672-4.065-2.019v7.469h-3.163V27.519c0-1.521-0.04-3.08-0.117-4.68h2.782l0.177,2.258h0.06
			c1.055-1.701,2.655-2.552,4.804-2.552c1.679,0,3.081,0.664,4.203,1.991C62.783,25.867,63.346,27.614,63.346,29.781z
			 M60.124,29.897c0-1.386-0.312-2.528-0.938-3.428c-0.684-0.937-1.602-1.405-2.753-1.405c-0.78,0-1.489,0.261-2.124,0.776
			c-0.634,0.519-1.05,1.197-1.244,2.038c-0.098,0.391-0.147,0.709-0.147,0.961v2.377c0,1.033,0.318,1.906,0.952,2.622
			c0.636,0.711,1.46,1.069,2.475,1.069c1.191,0,2.119-0.461,2.781-1.377C59.791,32.612,60.124,31.401,60.124,29.897z"/>
		<path fill="#FFFFFF" d="M79.721,29.781c0,2.421-0.658,4.336-1.974,5.74c-1.18,1.251-2.644,1.875-4.39,1.875
			c-1.886,0-3.242-0.672-4.066-2.019v7.469h-3.163V27.519c0-1.521-0.04-3.08-0.117-4.68h2.782l0.177,2.258h0.06
			c1.054-1.701,2.654-2.552,4.805-2.552c1.678,0,3.08,0.664,4.204,1.991C79.156,25.867,79.721,27.614,79.721,29.781z M76.496,29.897
			c0-1.386-0.312-2.528-0.938-3.428c-0.685-0.937-1.599-1.405-2.751-1.405c-0.781,0-1.49,0.261-2.126,0.776
			c-0.634,0.519-1.049,1.197-1.243,2.038c-0.097,0.391-0.148,0.709-0.148,0.961v2.377c0,1.033,0.318,1.906,0.951,2.622
			c0.635,0.709,1.459,1.069,2.478,1.069c1.192,0,2.12-0.461,2.782-1.377C76.163,32.612,76.496,31.401,76.496,29.897z"/>
		<path fill="#FFFFFF" d="M98.027,31.538c0,1.681-0.586,3.046-1.755,4.102c-1.284,1.151-3.078,1.729-5.378,1.729
			c-2.125,0-3.828-0.41-5.113-1.23l0.732-2.637c1.387,0.821,2.91,1.231,4.57,1.231c1.191,0,2.119-0.27,2.781-0.805
			c0.664-0.538,0.998-1.256,0.998-2.152c0-0.803-0.277-1.476-0.822-2.021c-0.547-0.545-1.451-1.056-2.723-1.522
			c-3.457-1.289-5.188-3.176-5.188-5.656c0-1.619,0.611-2.945,1.83-3.983c1.221-1.035,2.837-1.553,4.85-1.553
			c1.797,0,3.293,0.313,4.48,0.938l-0.794,2.579c-1.118-0.605-2.38-0.909-3.792-0.909c-1.116,0-1.993,0.275-2.619,0.821
			c-0.525,0.488-0.793,1.083-0.793,1.789c0,0.779,0.304,1.425,0.909,1.933c0.526,0.469,1.483,0.977,2.87,1.522
			c1.699,0.686,2.948,1.483,3.748,2.401C97.626,29.03,98.027,30.174,98.027,31.538z"/>
		<path fill="#FFFFFF" d="M108.514,25.212h-3.488v6.912c0,1.759,0.615,2.637,1.846,2.637c0.564,0,1.035-0.049,1.404-0.148
			l0.088,2.402c-0.623,0.233-1.443,0.35-2.459,0.35c-1.25,0-2.225-0.382-2.93-1.144c-0.703-0.763-1.055-2.04-1.055-3.838v-7.176
			h-2.077v-2.373h2.077v-2.607l3.105-0.938v3.545h3.488V25.212L108.514,25.212z"/>
		<path fill="#FFFFFF" d="M124.211,29.84c0,2.188-0.625,3.984-1.875,5.39c-1.307,1.446-3.045,2.167-5.213,2.167
			c-2.092,0-3.756-0.692-4.996-2.077c-1.24-1.387-1.859-3.134-1.859-5.241c0-2.207,0.641-4.014,1.918-5.42
			c1.279-1.404,3.004-2.109,5.17-2.109c2.09,0,3.768,0.695,5.039,2.081C123.607,25.975,124.211,27.71,124.211,29.84z
			 M120.932,29.912c0-1.305-0.281-2.422-0.846-3.358c-0.664-1.13-1.613-1.694-2.844-1.694c-1.266,0-2.238,0.564-2.898,1.694
			c-0.568,0.937-0.85,2.075-0.85,3.419c0,1.305,0.281,2.426,0.85,3.358c0.682,1.132,1.637,1.696,2.873,1.696
			c1.209,0,2.156-0.577,2.844-1.724C120.641,32.347,120.932,31.219,120.932,29.912z"/>
		<path fill="#FFFFFF" d="M134.496,25.621c-0.312-0.059-0.646-0.088-0.996-0.088c-1.111,0-1.973,0.418-2.578,1.261
			c-0.527,0.742-0.789,1.68-0.789,2.811v7.471h-3.164v-9.753c0-1.639-0.031-3.136-0.092-4.482h2.754l0.117,2.725h0.088
			c0.334-0.936,0.861-1.691,1.582-2.256c0.705-0.51,1.465-0.764,2.285-0.764c0.293,0,0.557,0.021,0.791,0.059L134.496,25.621
			L134.496,25.621z"/>
		<path fill="#FFFFFF" d="M148.645,29.283c0,0.566-0.039,1.044-0.117,1.435h-9.488c0.035,1.406,0.496,2.483,1.377,3.226
			c0.801,0.662,1.834,0.993,3.104,0.993c1.406,0,2.686-0.222,3.84-0.672l0.494,2.194c-1.346,0.588-2.938,0.88-4.771,0.88
			c-2.209,0-3.941-0.648-5.201-1.946c-1.258-1.298-1.891-3.044-1.891-5.229c0-2.144,0.586-3.932,1.76-5.357
			c1.229-1.523,2.889-2.283,4.979-2.283c2.051,0,3.605,0.76,4.658,2.283C148.223,26.012,148.645,27.508,148.645,29.283z
			 M145.627,28.464c0.021-0.938-0.186-1.748-0.613-2.432c-0.549-0.882-1.391-1.321-2.52-1.321c-1.035,0-1.877,0.43-2.52,1.289
			c-0.525,0.684-0.838,1.508-0.936,2.461L145.627,28.464L145.627,28.464z"/>
	</g>
	<g>
		<g>
			<path fill="#FFFFFF" d="M34.486,10.352c-0.879,0-1.641-0.043-2.274-0.116V0.69c0.82-0.128,1.712-0.202,2.677-0.202
				c3.628,0,5.299,1.785,5.299,4.694C40.188,8.539,38.215,10.352,34.486,10.352z M35.018,1.712c-0.49,0-0.907,0.03-1.252,0.101
				v7.256c0.188,0.03,0.546,0.043,1.051,0.043c2.376,0,3.729-1.353,3.729-3.887C38.545,2.966,37.322,1.712,35.018,1.712z"/>
			<path fill="#FFFFFF" d="M45.394,10.424c-2.044,0-3.369-1.526-3.369-3.599c0-2.16,1.353-3.7,3.485-3.7
				c2.015,0,3.37,1.454,3.37,3.585C48.879,8.897,47.483,10.424,45.394,10.424z M45.453,4.261c-1.123,0-1.843,1.05-1.843,2.52
				c0,1.441,0.735,2.491,1.828,2.491c1.094,0,1.828-1.124,1.828-2.521C47.266,5.327,46.546,4.261,45.453,4.261z"/>
			<path fill="#FFFFFF" d="M60.537,3.269l-2.189,6.997h-1.425l-0.906-3.039c-0.23-0.762-0.417-1.511-0.562-2.259h-0.03
				c-0.115,0.762-0.331,1.527-0.562,2.259l-0.964,3.039h-1.439L50.4,3.269h1.598l0.792,3.327c0.187,0.792,0.344,1.54,0.475,2.246
				h0.03c0.113-0.589,0.3-1.325,0.575-2.232l0.994-3.34h1.267l0.951,3.269c0.23,0.792,0.417,1.57,0.562,2.304h0.042
				c0.101-0.72,0.259-1.483,0.475-2.304l0.851-3.269L60.537,3.269L60.537,3.269z"/>
			<path fill="#FFFFFF" d="M68.594,10.266h-1.556V6.248c0-1.237-0.475-1.857-1.411-1.857c-0.921,0-1.555,0.792-1.555,1.713v4.162
				h-1.555V5.269c0-0.619-0.015-1.282-0.058-2.001h1.368l0.073,1.08h0.042c0.419-0.747,1.267-1.222,2.219-1.222
				c1.468,0,2.433,1.123,2.433,2.95L68.594,10.266L68.594,10.266z"/>
			<path fill="#FFFFFF" d="M72.881,10.266h-1.557V0.058h1.557V10.266z"/>
			<path fill="#FFFFFF" d="M78.55,10.424c-2.044,0-3.369-1.526-3.369-3.599c0-2.16,1.353-3.7,3.483-3.7
				c2.017,0,3.368,1.454,3.368,3.585C82.034,8.897,80.637,10.424,78.55,10.424z M78.607,4.261c-1.123,0-1.843,1.05-1.843,2.52
				c0,1.441,0.735,2.491,1.827,2.491c1.094,0,1.826-1.124,1.826-2.521C80.42,5.327,79.701,4.261,78.607,4.261z"/>
			<path fill="#FFFFFF" d="M88.162,10.266L88.049,9.46h-0.04c-0.476,0.648-1.168,0.964-2.046,0.964
				c-1.255,0-2.145-0.878-2.145-2.059c0-1.728,1.498-2.62,4.09-2.62V5.615c0-0.921-0.487-1.382-1.452-1.382
				c-0.69,0-1.296,0.173-1.829,0.519L84.312,3.73c0.646-0.404,1.454-0.605,2.402-0.605c1.828,0,2.749,0.964,2.749,2.894v2.577
				c0,0.707,0.032,1.253,0.102,1.671L88.162,10.266L88.162,10.266z M87.949,6.78c-1.727,0-2.594,0.419-2.594,1.411
				c0,0.734,0.447,1.093,1.066,1.093c0.791,0,1.527-0.604,1.527-1.424V6.78z"/>
			<path fill="#FFFFFF" d="M97.014,10.266l-0.07-1.124h-0.045c-0.445,0.849-1.197,1.282-2.245,1.282
				c-1.688,0-2.937-1.483-2.937-3.571c0-2.188,1.295-3.729,3.064-3.729c0.936,0,1.6,0.316,1.973,0.951h0.03V0.058h1.556V8.38
				c0,0.676,0.017,1.31,0.059,1.886H97.014z M96.784,6.149c0-0.98-0.647-1.815-1.638-1.815c-1.153,0-1.857,1.022-1.857,2.461
				c0,1.411,0.731,2.377,1.826,2.377c0.979,0,1.669-0.85,1.669-1.858V6.149L96.784,6.149z"/>
			<path fill="#FFFFFF" d="M108.207,10.424c-2.041,0-3.367-1.526-3.367-3.599c0-2.16,1.354-3.7,3.484-3.7
				c2.016,0,3.369,1.454,3.369,3.585C111.695,8.897,110.297,10.424,108.207,10.424z M108.266,4.261c-1.121,0-1.842,1.05-1.842,2.52
				c0,1.441,0.736,2.491,1.828,2.491c1.094,0,1.826-1.124,1.826-2.521C110.082,5.327,109.361,4.261,108.266,4.261z"/>
			<path fill="#FFFFFF" d="M120.055,10.266h-1.557V6.248c0-1.237-0.475-1.857-1.412-1.857c-0.922,0-1.553,0.792-1.553,1.713v4.162
				h-1.555V5.269c0-0.619-0.016-1.282-0.059-2.001h1.367l0.072,1.08h0.045c0.416-0.747,1.266-1.224,2.217-1.224
				c1.469,0,2.434,1.123,2.434,2.951V10.266z"/>
			<path fill="#FFFFFF" d="M130.514,4.435h-1.709v3.397c0,0.865,0.299,1.297,0.904,1.297c0.275,0,0.504-0.03,0.689-0.073
				l0.045,1.181c-0.303,0.116-0.705,0.174-1.207,0.174c-1.225,0-1.959-0.677-1.959-2.448V4.435h-1.02V3.269h1.02V1.987l1.527-0.461
				v1.742h1.709V4.435L130.514,4.435z"/>
			<path fill="#FFFFFF" d="M138.746,10.266h-1.553V6.278c0-1.253-0.475-1.886-1.412-1.886c-0.805,0-1.555,0.547-1.555,1.656v4.218
				h-1.555V0.058h1.555v4.203h0.031c0.488-0.762,1.197-1.138,2.104-1.138c1.48,0,2.385,1.152,2.385,2.981V10.266L138.746,10.266z"/>
			<path fill="#FFFFFF" d="M147.18,7.141h-4.666c0.029,1.324,0.906,2.072,2.205,2.072c0.689,0,1.324-0.116,1.885-0.331l0.242,1.081
				c-0.662,0.287-1.439,0.432-2.348,0.432c-2.188,0-3.482-1.383-3.482-3.526c0-2.145,1.326-3.759,3.307-3.759
				c1.789,0,2.91,1.325,2.91,3.327C147.236,6.709,147.225,6.954,147.18,7.141z M145.754,6.033c0-1.08-0.545-1.843-1.539-1.843
				c-0.893,0-1.6,0.777-1.701,1.843H145.754z"/>
		</g>
	</g>
</g>
</svg>
